<svg width="17" height="13" viewBox="0 0 17 13" fill="none" xmlns="http://www.w3.org/2000/svg">
<path d="M12.0416 3H14.1666L16.2916 6.042V10.5H14.8502C14.7649 11.1248 14.4699 11.6962 14.0191 12.1095C13.5683 12.5227 12.9921 12.7502 12.3958 12.7502C11.7996 12.7502 11.2233 12.5227 10.7725 12.1095C10.3218 11.6962 10.0267 11.1248 9.94144 10.5H6.35019C6.26598 11.1257 5.97138 11.6983 5.5205 12.1125C5.06962 12.5267 4.49274 12.7547 3.89581 12.7547C3.29889 12.7547 2.722 12.5267 2.27112 12.1125C1.82024 11.6983 1.52564 11.1257 1.44144 10.5H0.708313V1.5C0.708313 1.30109 0.782941 1.11032 0.915779 0.96967C1.04862 0.829018 1.22878 0.75 1.41665 0.75H11.3333C11.5212 0.75 11.7013 0.829018 11.8342 0.96967C11.967 1.11032 12.0416 1.30109 12.0416 1.5V3ZM12.0416 4.5V6.75H14.875V6.53625L13.4526 4.5H12.0416Z" fill="#D0011B"/>
</svg>
