<svg width="10" height="10" viewBox="0 0 10 10" fill="none" xmlns="http://www.w3.org/2000/svg">
<path d="M5 3.4379C4.13984 3.4379 3.43789 4.13985 3.43789 5.00001C3.43789 5.86016 4.13984 6.56212 5 6.56212C5.86015 6.56212 6.56211 5.86016 6.56211 5.00001C6.56211 4.13985 5.86015 3.4379 5 3.4379ZM9.68515 5.00001C9.68515 4.35313 9.69101 3.71212 9.65469 3.06641C9.61836 2.31641 9.44726 1.65079 8.89883 1.10235C8.34922 0.552741 7.68476 0.382819 6.93476 0.346491C6.28789 0.310163 5.64687 0.316022 5.00117 0.316022C4.35429 0.316022 3.71328 0.310163 3.06758 0.346491C2.31758 0.382819 1.65195 0.553913 1.10351 1.10235C0.553905 1.65196 0.383983 2.31641 0.347655 3.06641C0.311326 3.71329 0.317186 4.3543 0.317186 5.00001C0.317186 5.64571 0.311326 6.2879 0.347655 6.9336C0.383983 7.6836 0.555077 8.34923 1.10351 8.89766C1.65312 9.44727 2.31758 9.61719 3.06758 9.65352C3.71445 9.68985 4.35547 9.68399 5.00117 9.68399C5.64804 9.68399 6.28906 9.68985 6.93476 9.65352C7.68476 9.61719 8.35039 9.4461 8.89883 8.89766C9.44844 8.34805 9.61836 7.6836 9.65469 6.9336C9.69219 6.2879 9.68515 5.64688 9.68515 5.00001ZM5 7.40352C3.66992 7.40352 2.59648 6.33008 2.59648 5.00001C2.59648 3.66993 3.66992 2.59649 5 2.59649C6.33008 2.59649 7.40351 3.66993 7.40351 5.00001C7.40351 6.33008 6.33008 7.40352 5 7.40352ZM7.50195 3.05938C7.1914 3.05938 6.94062 2.8086 6.94062 2.49805C6.94062 2.18751 7.1914 1.93673 7.50195 1.93673C7.8125 1.93673 8.06328 2.18751 8.06328 2.49805C8.06337 2.57179 8.04892 2.64483 8.02074 2.71297C7.99256 2.78112 7.95122 2.84304 7.89908 2.89518C7.84693 2.94732 7.78502 2.98867 7.71687 3.01684C7.64873 3.04502 7.57569 3.05947 7.50195 3.05938Z" fill="white"/>
</svg>
