<svg width="14" height="13" viewBox="0 0 14 13" fill="none" xmlns="http://www.w3.org/2000/svg">
<g opacity="0.9">
<path d="M5.9185 1.75932C6.00565 1.55929 6.15516 1.38799 6.34784 1.26737C6.54053 1.14675 6.76761 1.08231 7 1.08231C7.23238 1.08231 7.45947 1.14675 7.65215 1.26737C7.84484 1.38799 7.99434 1.55929 8.0815 1.75932C8.9441 1.97961 9.70498 2.45675 10.2473 3.11746C10.7896 3.77818 11.0833 4.58593 11.0833 5.41666V7.96086L12.152 9.44936C12.2106 9.53094 12.2443 9.62576 12.2494 9.72371C12.2545 9.82166 12.2309 9.91906 12.1811 10.0055C12.1313 10.092 12.0571 10.1643 11.9665 10.2147C11.8759 10.2651 11.7723 10.2917 11.6667 10.2917H9.02125C8.95101 10.7429 8.70803 11.1556 8.33682 11.454C7.96561 11.7525 7.49102 11.9168 7 11.9168C6.50897 11.9168 6.03438 11.7525 5.66317 11.454C5.29196 11.1556 5.04898 10.7429 4.97875 10.2917H2.33333C2.22772 10.2917 2.12409 10.2651 2.03349 10.2147C1.94289 10.1643 1.86872 10.092 1.8189 10.0055C1.76908 9.91906 1.74547 9.82166 1.7506 9.72371C1.75572 9.62576 1.78938 9.53094 1.848 9.44936L2.91666 7.96086V5.41666C2.91666 3.67032 4.18833 2.19916 5.9185 1.75932ZM6.17516 10.2917C6.23541 10.4502 6.34712 10.5874 6.4949 10.6845C6.64268 10.7816 6.81926 10.8338 7.00029 10.8338C7.18132 10.8338 7.35789 10.7816 7.50567 10.6845C7.65345 10.5874 7.76517 10.4502 7.82541 10.2917H6.17516ZM7 2.70832C6.22645 2.70832 5.48458 2.99366 4.9376 3.50158C4.39062 4.00949 4.08333 4.69836 4.08333 5.41666V8.12499C4.08335 8.23199 4.04925 8.33659 3.98533 8.42561L3.42358 9.20832H10.5758L10.0141 8.42561C9.95036 8.33653 9.91646 8.23193 9.91666 8.12499V5.41666C9.91666 4.69836 9.60937 4.00949 9.06239 3.50158C8.51541 2.99366 7.77354 2.70832 7 2.70832Z" fill="white"/>
</g>
</svg>
