<svg width="14" height="18" viewBox="0 0 14 18" fill="none" xmlns="http://www.w3.org/2000/svg">
<path fill-rule="evenodd" clip-rule="evenodd" d="M6.67168 0.733332C6.77543 0.688857 6.88713 0.665924 7.00001 0.665924C7.11289 0.665924 7.22459 0.688857 7.32834 0.733332L12.6567 3.0175C12.9565 3.14605 13.2121 3.35978 13.3916 3.6322C13.5712 3.90462 13.6668 4.22374 13.6667 4.55V10.2667C13.6666 11.2949 13.3947 12.3049 12.8785 13.1942C12.3624 14.0836 11.6203 14.8207 10.7275 15.3308L7.41334 17.2242C7.28746 17.2961 7.14499 17.3339 7.00001 17.3339C6.85503 17.3339 6.71256 17.2961 6.58668 17.2242L3.27251 15.3308C2.37948 14.8205 1.63726 14.0832 1.12109 13.1935C0.604915 12.3039 0.333151 11.2935 0.333344 10.265V4.55C0.33338 4.22388 0.42909 3.90494 0.608619 3.63268C0.788147 3.36043 1.0436 3.14682 1.34334 3.01833L6.67168 0.733332ZM10.0892 7.9225C10.241 7.76533 10.325 7.55483 10.3231 7.33633C10.3212 7.11783 10.2335 6.90882 10.079 6.75432C9.92452 6.59981 9.71551 6.51217 9.49701 6.51027C9.27851 6.50837 9.06801 6.59237 8.91084 6.74417L6.16668 9.48833L5.08918 8.41083C4.93201 8.25903 4.72151 8.17504 4.50301 8.17694C4.28451 8.17884 4.0755 8.26648 3.92099 8.42098C3.76649 8.57549 3.67885 8.7845 3.67695 9.003C3.67505 9.2215 3.75905 9.432 3.91084 9.58917L5.57751 11.2558C5.73378 11.4121 5.94571 11.4998 6.16668 11.4998C6.38765 11.4998 6.59957 11.4121 6.75584 11.2558L10.0892 7.9225Z" fill="#D0011B"/>
</svg>
