<svg width="14" height="14" viewBox="0 0 14 14" fill="none" xmlns="http://www.w3.org/2000/svg">
<path d="M7.875 9.84375C7.875 10.0168 7.82368 10.186 7.72754 10.3299C7.63139 10.4738 7.49474 10.5859 7.33485 10.6521C7.17497 10.7184 6.99903 10.7357 6.8293 10.7019C6.65956 10.6682 6.50365 10.5848 6.38128 10.4625C6.25891 10.3401 6.17558 10.1842 6.14182 10.0145C6.10805 9.84472 6.12538 9.66879 6.19161 9.5089C6.25783 9.34902 6.36999 9.21236 6.51388 9.11621C6.65777 9.02007 6.82694 8.96875 7 8.96875C7.23207 8.96875 7.45463 9.06094 7.61872 9.22503C7.78281 9.38913 7.875 9.61169 7.875 9.84375ZM12.9063 7C12.9063 8.16815 12.5599 9.31006 11.9109 10.2813C11.2619 11.2526 10.3395 12.0096 9.26023 12.4567C8.181 12.9037 6.99345 13.0207 5.84775 12.7928C4.70205 12.5649 3.64966 12.0024 2.82365 11.1763C1.99765 10.3503 1.43513 9.29795 1.20724 8.15225C0.979346 7.00655 1.09631 5.819 1.54334 4.73978C1.99037 3.66055 2.74739 2.73812 3.71867 2.08913C4.68994 1.44015 5.83186 1.09375 7 1.09375C8.5659 1.09549 10.0672 1.71831 11.1744 2.82557C12.2817 3.93283 12.9045 5.4341 12.9063 7ZM11.5938 7C11.5938 6.09144 11.3243 5.20329 10.8196 4.44785C10.3148 3.69241 9.59735 3.10362 8.75795 2.75593C7.91856 2.40824 6.99491 2.31727 6.10381 2.49452C5.21271 2.67177 4.39418 3.10928 3.75173 3.75173C3.10928 4.39418 2.67177 5.2127 2.49452 6.1038C2.31727 6.9949 2.40824 7.91855 2.75593 8.75795C3.10362 9.59735 3.69241 10.3148 4.44785 10.8196C5.20329 11.3243 6.09144 11.5938 7 11.5938C8.21794 11.5924 9.38562 11.108 10.2468 10.2468C11.108 9.38562 11.5924 8.21794 11.5938 7ZM7 3.5C5.67328 3.5 4.59375 4.48109 4.59375 5.6875V5.90625C4.59375 6.0803 4.66289 6.24722 4.78596 6.37029C4.90903 6.49336 5.07595 6.5625 5.25 6.5625C5.42405 6.5625 5.59097 6.49336 5.71404 6.37029C5.83711 6.24722 5.90625 6.0803 5.90625 5.90625V5.6875C5.90625 5.20516 6.39844 4.8125 7 4.8125C7.60156 4.8125 8.09375 5.20516 8.09375 5.6875C8.09375 6.16984 7.60156 6.5625 7 6.5625C6.82595 6.5625 6.65903 6.63164 6.53596 6.75471C6.41289 6.87778 6.34375 7.0447 6.34375 7.21875V7.65625C6.34336 7.81838 6.403 7.97492 6.51118 8.09569C6.61936 8.21646 6.76841 8.29291 6.92961 8.3103C7.09081 8.32769 7.25274 8.28479 7.38419 8.18987C7.51563 8.09495 7.60729 7.95474 7.64149 7.79625C8.65758 7.54031 9.40625 6.69211 9.40625 5.6875C9.40625 4.48109 8.32672 3.5 7 3.5Z" fill="#999999"/>
</svg>
