<svg width="17" height="17" viewBox="0 0 17 17" fill="none" xmlns="http://www.w3.org/2000/svg">
<path d="M6.875 8.33333L4.70833 7M4.70833 7L6.875 5.66667M4.70833 7H10.6667C11.2413 7 11.7924 7.14048 12.1987 7.39052C12.6051 7.64057 12.8333 7.97971 12.8333 8.33333C12.8333 8.68696 12.6051 9.02609 12.1987 9.27614C11.7924 9.52619 11.2413 9.66667 10.6667 9.66667H10.125M16 8.5C16 12.6421 12.6421 16 8.5 16C4.35786 16 1 12.6421 1 8.5C1 4.35786 4.35786 1 8.5 1C12.6421 1 16 4.35786 16 8.5Z" stroke="white" stroke-width="2" stroke-linecap="round" stroke-linejoin="round"/>
</svg>
