<svg width="20" height="16" viewBox="0 0 20 16" fill="none" xmlns="http://www.w3.org/2000/svg">
<path d="M18.9625 7.36L16.25 4.92C16.1027 4.78726 15.9217 4.68115 15.7191 4.60873C15.5165 4.53631 15.2969 4.49924 15.075 4.5H12.575V2.75C12.575 2.4202 12.4121 2.10377 12.1218 1.86963C11.8315 1.6355 11.4372 1.50264 11.025 1.5H2.20001C1.78561 1.5 1.38818 1.6317 1.09516 1.86612C0.802132 2.10054 0.637512 2.41848 0.637512 2.75V11.25C0.637512 11.5815 0.802132 11.8995 1.09516 12.1339C1.38818 12.3683 1.78561 12.5 2.20001 12.5H2.61251C2.63536 13.0473 2.92838 13.5651 3.4274 13.9399C3.92642 14.3148 4.59078 14.5162 5.27501 14.5C5.96046 14.5162 6.62617 14.3151 7.12718 13.9406C7.6282 13.566 7.92394 13.0482 7.95001 12.5H12.5C12.5229 13.0473 12.8159 13.5651 13.3149 13.9399C13.8139 14.3148 14.4783 14.5162 15.1625 14.5C15.848 14.5162 16.5137 14.3151 17.0147 13.9406C17.5157 13.566 17.8114 13.0482 17.8375 12.5C18.2399 12.4847 18.6197 12.3465 18.8987 12.114C19.1777 11.8815 19.3348 11.5723 19.3375 11.25V8.19C19.3464 7.88559 19.2126 7.58953 18.9625 7.36ZM5.27501 13.25C5.005 13.2666 4.73776 13.197 4.53166 13.0565C4.32555 12.916 4.19733 12.7159 4.17501 12.5C4.19733 12.2841 4.32555 12.084 4.53166 11.9435C4.73776 11.803 5.005 11.7334 5.27501 11.75C5.54635 11.7333 5.81502 11.8026 6.02312 11.9429C6.23122 12.0832 6.36208 12.2832 6.38751 12.5C6.36208 12.7168 6.23122 12.9168 6.02312 13.0571C5.81502 13.1974 5.54635 13.2667 5.27501 13.25ZM11.025 5.67V11.25H7.36251C7.10388 11.0109 6.78305 10.8198 6.42246 10.6903C6.06188 10.5607 5.67026 10.4958 5.27501 10.5C4.88187 10.4972 4.49267 10.5629 4.13438 10.6924C3.77609 10.8219 3.45727 11.0122 3.20001 11.25H2.20001V2.75H11.025V5.67ZM12.5875 5.75H15.0875L16.8875 7.38H12.5875V5.75ZM15.1875 13.25C14.9175 13.2666 14.6503 13.197 14.4442 13.0565C14.238 12.916 14.1098 12.7159 14.0875 12.5C14.1098 12.2841 14.238 12.084 14.4442 11.9435C14.6503 11.803 14.9175 11.7334 15.1875 11.75C15.4588 11.7333 15.7275 11.8026 15.9356 11.9429C16.1437 12.0832 16.2746 12.2832 16.3 12.5C16.2746 12.7168 16.1437 12.9168 15.9356 13.0571C15.7275 13.1974 15.4588 13.2667 15.1875 13.25ZM15.1875 10.5C14.7944 10.4972 14.4052 10.5629 14.0469 10.6924C13.6886 10.8219 13.3698 11.0122 13.1125 11.25H12.5875V8.62H17.8V11.25H17.275C17.0164 11.0109 16.6955 10.8198 16.335 10.6903C15.9744 10.5607 15.5828 10.4958 15.1875 10.5Z" fill="#414141"/>
</svg>
