<svg width="35" height="20" viewBox="0 0 35 20" fill="none" xmlns="http://www.w3.org/2000/svg">
<path d="M0 10C0 4.47715 4.47715 0 10 0H25C30.5228 0 35 4.47715 35 10C35 15.5228 30.5228 20 25 20H0V10Z" fill="#EF6547"/>
<path d="M13.6939 5.72727V13H12.522L9.09517 8.04616H9.0348V13H7.71733V5.72727H8.89631L12.3196 10.6847H12.3835V5.72727H13.6939Z" fill="white"/>
<path d="M17.4874 13.1065C16.9405 13.1065 16.4682 12.9929 16.0705 12.7656C15.6751 12.536 15.3709 12.2116 15.1578 11.7926C14.9448 11.3712 14.8382 10.8752 14.8382 10.3047C14.8382 9.74361 14.9448 9.25118 15.1578 8.82741C15.3733 8.40128 15.6739 8.06984 16.0598 7.8331C16.4457 7.59399 16.8991 7.47443 17.4199 7.47443C17.7561 7.47443 18.0733 7.52888 18.3716 7.63778C18.6723 7.74432 18.9374 7.91004 19.1671 8.13494C19.3991 8.35985 19.5814 8.64631 19.714 8.99432C19.8465 9.33996 19.9128 9.75189 19.9128 10.2301V10.6243H15.4419V9.75781H18.6806C18.6782 9.5116 18.6249 9.29261 18.5208 9.10085C18.4166 8.90672 18.271 8.75402 18.084 8.64276C17.8993 8.53149 17.6839 8.47585 17.4377 8.47585C17.1749 8.47585 16.9441 8.53977 16.7452 8.66761C16.5463 8.79309 16.3913 8.95881 16.28 9.16477C16.1711 9.36837 16.1155 9.59209 16.1131 9.83594V10.5923C16.1131 10.9096 16.1711 11.1818 16.2871 11.4091C16.4031 11.634 16.5653 11.8068 16.7736 11.9276C16.9819 12.0459 17.2258 12.1051 17.5051 12.1051C17.6922 12.1051 17.8614 12.0791 18.013 12.027C18.1645 11.9725 18.2959 11.8932 18.4071 11.7891C18.5184 11.6849 18.6025 11.5559 18.6593 11.402L19.8596 11.5369C19.7838 11.8542 19.6394 12.1312 19.4263 12.3679C19.2156 12.6023 18.9457 12.7846 18.6167 12.9148C18.2876 13.0426 17.9112 13.1065 17.4874 13.1065Z" fill="white"/>
<path d="M22.0968 13L20.5556 7.54545H21.8659L22.8248 11.3807H22.8745L23.8546 7.54545H25.1507L26.1309 11.3594H26.1841L27.1287 7.54545H28.4426L26.8979 13H25.5591L24.5364 9.31392H24.4618L23.4391 13H22.0968Z" fill="white"/>
</svg>
