<svg width="25" height="23" viewBox="0 0 25 23" fill="none" xmlns="http://www.w3.org/2000/svg">
<path d="M12.5 14.0511L14.7378 15.313C14.9333 15.4266 15.132 15.4175 15.3338 15.2857C15.5356 15.1547 15.6117 14.9782 15.5622 14.7561L14.9635 12.4113L16.9432 10.8473C17.1378 10.6882 17.1946 10.5071 17.1135 10.304C17.0315 10.1001 16.8676 9.98822 16.6216 9.96832L14.0311 9.74952L13.0041 7.55271C12.9113 7.35213 12.7437 7.25184 12.5014 7.25184C12.259 7.25184 12.0905 7.35213 11.9959 7.55271L10.9689 9.74952L8.37838 9.96708C8.13244 9.9878 7.96892 10.0997 7.88784 10.3028C7.80676 10.5058 7.86307 10.6873 8.05676 10.8473L10.0365 12.4113L9.43919 14.7561C9.38874 14.9782 9.46442 15.1547 9.66622 15.2857C9.86802 15.4175 10.0667 15.4266 10.2622 15.313L12.5 14.0511ZM8.53514 20.2027H5.22433C4.62343 20.2027 4.10947 20.0058 3.68244 19.6122C3.25541 19.2185 3.04145 18.7464 3.04055 18.1961V15.1489L0.621633 12.9073C0.40812 12.7059 0.250913 12.4846 0.150012 12.2435C0.0491111 12.0023 -0.000888941 11.7561 1.19588e-05 11.505C1.19588e-05 11.2555 0.0504624 11.0085 0.151363 10.764C0.252264 10.5195 0.40857 10.2965 0.620282 10.0951L3.04055 7.85233V4.80639C3.04055 4.25356 3.25451 3.78071 3.68244 3.38785C4.11037 2.99498 4.62388 2.79813 5.22298 2.79731H8.53514L10.9716 0.571902C11.1905 0.37547 11.4311 0.23084 11.6932 0.138011C11.9554 0.0451822 12.223 -0.000817826 12.4959 1.10021e-05C12.7671 1.10021e-05 13.0356 0.0464254 13.3013 0.139254C13.5671 0.232083 13.8095 0.375885 14.0284 0.570659L16.4649 2.79731H19.7757C20.3766 2.79731 20.891 2.99415 21.3189 3.38785C21.7468 3.78154 21.9604 4.25397 21.9594 4.80514V7.85233L24.3784 10.0939C24.5919 10.2953 24.7491 10.5166 24.85 10.7578C24.9509 10.999 25.0009 11.2451 25 11.4963C25 11.7457 24.95 11.9927 24.85 12.2372C24.75 12.4817 24.5932 12.7047 24.3797 12.9061L21.9594 15.1477V18.1936C21.9594 18.7464 21.7455 19.2197 21.3176 19.6134C20.8896 20.0071 20.3761 20.2035 19.777 20.2027H16.4649L14.0284 22.4281C13.8095 22.6245 13.5689 22.7692 13.3068 22.862C13.0446 22.9548 12.777 23.0008 12.5041 23C12.2329 23 11.9644 22.954 11.6986 22.862C11.4329 22.77 11.1905 22.6258 10.9716 22.4293L8.53514 20.2027Z" fill="#D0011B"/>
<path d="M11.37 4.0315C11.4342 3.89774 11.5261 3.78675 11.6367 3.70961C11.7472 3.63248 11.8725 3.59188 12 3.59188C12.1275 3.59188 12.2528 3.63248 12.3633 3.70961C12.4739 3.78675 12.5658 3.89774 12.63 4.0315L14.2604 7.43008L17.4268 8.26308C17.5513 8.29595 17.6666 8.36788 17.7611 8.47171C17.8556 8.57554 17.9261 8.70764 17.9654 8.85484C18.0048 9.00204 18.0117 9.1592 17.9855 9.31065C17.9592 9.4621 17.9007 9.60255 17.8158 9.718L15.6575 12.6512L15.9842 16.5648C15.9971 16.7189 15.9764 16.8744 15.9243 17.0158C15.8722 17.1571 15.7905 17.2795 15.6873 17.3705C15.5841 17.4616 15.4631 17.5181 15.3362 17.5346C15.2094 17.5511 15.0812 17.5268 14.9645 17.4643L12 15.8777L9.0355 17.4643C8.91879 17.5268 8.79061 17.5511 8.66377 17.5346C8.53694 17.5181 8.41587 17.4616 8.31268 17.3705C8.20948 17.2795 8.12775 17.1571 8.07567 17.0158C8.02358 16.8744 8.00295 16.7189 8.01583 16.5648L8.3425 12.6512L6.18417 9.71871C6.09913 9.60327 6.04052 9.46276 6.01419 9.31122C5.98786 9.15967 5.99472 9.00239 6.0341 8.85508C6.07348 8.70776 6.14399 8.57557 6.2386 8.47169C6.3332 8.36781 6.44859 8.29588 6.57325 8.26308L9.73958 7.43008L11.37 4.0315Z" fill="#D0011B"/>
<path d="M10.4943 11.7273C10.4943 12.4325 10.3622 13.0366 10.098 13.5394C9.83594 14.0401 9.47798 14.4237 9.02415 14.69C8.57244 14.9563 8.06001 15.0895 7.48686 15.0895C6.91371 15.0895 6.40021 14.9563 5.94638 14.69C5.49467 14.4215 5.13672 14.0369 4.87251 13.5362C4.61044 13.0334 4.4794 12.4304 4.4794 11.7273C4.4794 11.022 4.61044 10.419 4.87251 9.91832C5.13672 9.41548 5.49467 9.03089 5.94638 8.76456C6.40021 8.49822 6.91371 8.36506 7.48686 8.36506C8.06001 8.36506 8.57244 8.49822 9.02415 8.76456C9.47798 9.03089 9.83594 9.41548 10.098 9.91832C10.3622 10.419 10.4943 11.022 10.4943 11.7273ZM9.3022 11.7273C9.3022 11.2308 9.22443 10.8121 9.06889 10.4712C8.91548 10.1282 8.70241 9.86932 8.42969 9.6946C8.15696 9.51776 7.84269 9.42933 7.48686 9.42933C7.13104 9.42933 6.81676 9.51776 6.54403 9.6946C6.27131 9.86932 6.05717 10.1282 5.90163 10.4712C5.74822 10.8121 5.67152 11.2308 5.67152 11.7273C5.67152 12.2237 5.74822 12.6435 5.90163 12.9865C6.05717 13.3274 6.27131 13.5863 6.54403 13.7631C6.81676 13.9379 7.13104 14.0252 7.48686 14.0252C7.84269 14.0252 8.15696 13.9379 8.42969 13.7631C8.70241 13.5863 8.91548 13.3274 9.06889 12.9865C9.22443 12.6435 9.3022 12.2237 9.3022 11.7273Z" fill="white"/>
<path d="M11.6153 15V8.45455H14.0699C14.5727 8.45455 14.9946 8.5419 15.3355 8.71662C15.6785 8.89134 15.9374 9.13636 16.1121 9.4517C16.289 9.76491 16.3774 10.1303 16.3774 10.5479C16.3774 10.9677 16.2879 11.332 16.1089 11.641C15.9321 11.9478 15.6711 12.1854 15.3259 12.3537C14.9807 12.5199 14.5567 12.603 14.0539 12.603H12.3057V11.6186H13.8941C14.1881 11.6186 14.4289 11.5781 14.6164 11.4972C14.8039 11.4141 14.9424 11.2937 15.0319 11.136C15.1235 10.9762 15.1693 10.7802 15.1693 10.5479C15.1693 10.3157 15.1235 10.1175 15.0319 9.95348C14.9403 9.78729 14.8007 9.66158 14.6132 9.57635C14.4257 9.48899 14.1839 9.44531 13.8877 9.44531H12.801V15H11.6153ZM14.9967 12.0341L16.6171 15H15.2939L13.7023 12.0341H14.9967Z" fill="white"/>
<path d="M18.6546 8.45455V15H17.4688V8.45455H18.6546Z" fill="white"/>
</svg>
