<svg width="20" height="19" viewBox="0 0 20 19" fill="none" xmlns="http://www.w3.org/2000/svg">
<path d="M9.01 0.628997C9.11088 0.455893 9.25538 0.312265 9.42909 0.21244C9.6028 0.112614 9.79965 0.0600815 10 0.0600815C10.2004 0.0600815 10.3972 0.112614 10.5709 0.21244C10.7446 0.312265 10.8891 0.455893 10.99 0.628997L13.5521 5.02716L18.5278 6.10516C18.7235 6.14769 18.9046 6.24078 19.0532 6.37515C19.2017 6.50952 19.3124 6.68047 19.3742 6.87097C19.4361 7.06146 19.447 7.26485 19.4057 7.46084C19.3645 7.65683 19.2726 7.83859 19.1392 7.988L15.7475 11.7839L16.2608 16.8485C16.2811 17.0479 16.2487 17.2492 16.1668 17.4322C16.085 17.6151 15.9565 17.7734 15.7944 17.8913C15.6322 18.0091 15.442 18.0823 15.2426 18.1036C15.0433 18.1249 14.8419 18.0936 14.6585 18.0127L10 15.9593L5.3415 18.0127C5.15809 18.0936 4.95668 18.1249 4.75736 18.1036C4.55804 18.0823 4.3678 18.0091 4.20563 17.8913C4.04347 17.7734 3.91504 17.6151 3.83319 17.4322C3.75134 17.2492 3.71892 17.0479 3.73917 16.8485L4.2525 11.7839L0.860835 7.98891C0.72721 7.83952 0.635111 7.65769 0.593731 7.46157C0.552351 7.26546 0.563139 7.06192 0.625017 6.87127C0.686895 6.68063 0.797698 6.50955 0.946366 6.37512C1.09503 6.24069 1.27636 6.14761 1.47225 6.10516L6.44792 5.02716L9.01 0.628997Z" fill="#D0011B"/>
</svg>
